<svg xmlns="http://www.w3.org/2000/svg" width="512" height="512" viewBox="0 0 512 512">
  <rect width="512" height="512" rx="96" fill="#2563eb"/>
  <rect x="64" y="64" width="384" height="384" rx="80" fill="#ffffff" opacity="0.12"/>
  <g fill="#ffffff">
    <path d="M256 118c-76.7 0-139 62.3-139 139s62.3 139 139 139 139-62.3 139-139-62.3-139-139-139zm0 36c56.9 0 103 46.1 103 103s-46.1 103-103 103-103-46.1-103-103 46.1-103 103-103z"/>
    <path d="M164 309c0-10 8-18 18-18h148c10 0 18 8 18 18s-8 18-18 18H182c-10 0-18-8-18-18z"/>
  </g>
  <text x="256" y="270" text-anchor="middle" font-family="system-ui, -apple-system, Segoe UI, Arial" font-size="92" font-weight="800" fill="#ffffff">CMS</text>
</svg>
